<mxfile host="app.diagrams.net" modified="2023-04-01T13:49:59.578Z" agent="Mozilla/5.0 (Windows NT 10.0; Win64; x64) AppleWebKit/537.36 (KHTML, like Gecko) Chrome/111.0.0.0 Safari/537.36" etag="-zNn1Q-HLk3u-LqhVWK6" version="21.1.1" type="device">
  <diagram name="Sivu-1" id="3ydyQYzpMSRoBb6OUMgx">
    <mxGraphModel dx="1728" dy="937" grid="1" gridSize="10" guides="1" tooltips="1" connect="1" arrows="1" fold="1" page="1" pageScale="1" pageWidth="1654" pageHeight="2336" math="0" shadow="0">
      <root>
        <mxCell id="0" />
        <mxCell id="1" parent="0" />
        <mxCell id="HJ2EKo2n2KB-KbSQZaAH-1" value="GroupCollection" style="rounded=0;whiteSpace=wrap;html=1;fillColor=#d5e8d4;strokeColor=#82b366;" parent="1" vertex="1">
          <mxGeometry x="930" y="250" width="120" height="60" as="geometry" />
        </mxCell>
        <mxCell id="HJ2EKo2n2KB-KbSQZaAH-2" value="Group" style="rounded=0;whiteSpace=wrap;html=1;fillColor=#d5e8d4;strokeColor=#82b366;" parent="1" vertex="1">
          <mxGeometry x="680" y="250" width="120" height="60" as="geometry" />
        </mxCell>
        <mxCell id="HJ2EKo2n2KB-KbSQZaAH-4" value="collection" style="text;html=1;align=center;verticalAlign=middle;resizable=0;points=[];autosize=1;strokeColor=none;fillColor=none;" parent="1" vertex="1">
          <mxGeometry x="830" y="240" width="70" height="30" as="geometry" />
        </mxCell>
        <mxCell id="HJ2EKo2n2KB-KbSQZaAH-6" value="" style="endArrow=classic;html=1;rounded=0;exitX=1;exitY=0.25;exitDx=0;exitDy=0;entryX=0;entryY=0.25;entryDx=0;entryDy=0;" parent="1" source="HJ2EKo2n2KB-KbSQZaAH-2" target="HJ2EKo2n2KB-KbSQZaAH-1" edge="1">
          <mxGeometry width="50" height="50" relative="1" as="geometry">
            <mxPoint x="1240" y="440" as="sourcePoint" />
            <mxPoint x="1290" y="390" as="targetPoint" />
          </mxGeometry>
        </mxCell>
        <mxCell id="HJ2EKo2n2KB-KbSQZaAH-7" value="" style="endArrow=classic;html=1;rounded=0;exitX=0;exitY=0.75;exitDx=0;exitDy=0;entryX=1;entryY=0.75;entryDx=0;entryDy=0;" parent="1" source="HJ2EKo2n2KB-KbSQZaAH-1" target="HJ2EKo2n2KB-KbSQZaAH-2" edge="1">
          <mxGeometry width="50" height="50" relative="1" as="geometry">
            <mxPoint x="810" y="275" as="sourcePoint" />
            <mxPoint x="940" y="275" as="targetPoint" />
          </mxGeometry>
        </mxCell>
        <mxCell id="HJ2EKo2n2KB-KbSQZaAH-8" value="item" style="text;html=1;align=center;verticalAlign=middle;resizable=0;points=[];autosize=1;strokeColor=none;fillColor=none;" parent="1" vertex="1">
          <mxGeometry x="840" y="270" width="50" height="30" as="geometry" />
        </mxCell>
        <mxCell id="HJ2EKo2n2KB-KbSQZaAH-9" value="Breed" style="rounded=0;whiteSpace=wrap;html=1;fillColor=#f8cecc;strokeColor=#b85450;" parent="1" vertex="1">
          <mxGeometry x="680" y="510" width="120" height="60" as="geometry" />
        </mxCell>
        <mxCell id="HJ2EKo2n2KB-KbSQZaAH-10" value="BreedCollection" style="rounded=0;whiteSpace=wrap;html=1;fillColor=#f8cecc;strokeColor=#b85450;" parent="1" vertex="1">
          <mxGeometry x="930" y="510" width="120" height="60" as="geometry" />
        </mxCell>
        <mxCell id="HJ2EKo2n2KB-KbSQZaAH-11" value="collection" style="text;html=1;align=center;verticalAlign=middle;resizable=0;points=[];autosize=1;strokeColor=none;fillColor=none;" parent="1" vertex="1">
          <mxGeometry x="830" y="500" width="70" height="30" as="geometry" />
        </mxCell>
        <mxCell id="HJ2EKo2n2KB-KbSQZaAH-12" value="" style="endArrow=classic;html=1;rounded=0;exitX=1;exitY=0.25;exitDx=0;exitDy=0;entryX=0;entryY=0.25;entryDx=0;entryDy=0;" parent="1" edge="1">
          <mxGeometry width="50" height="50" relative="1" as="geometry">
            <mxPoint x="800" y="525" as="sourcePoint" />
            <mxPoint x="930" y="525" as="targetPoint" />
          </mxGeometry>
        </mxCell>
        <mxCell id="HJ2EKo2n2KB-KbSQZaAH-13" value="" style="endArrow=classic;html=1;rounded=0;exitX=0;exitY=0.75;exitDx=0;exitDy=0;entryX=1;entryY=0.75;entryDx=0;entryDy=0;" parent="1" edge="1">
          <mxGeometry width="50" height="50" relative="1" as="geometry">
            <mxPoint x="930" y="555" as="sourcePoint" />
            <mxPoint x="800" y="555" as="targetPoint" />
          </mxGeometry>
        </mxCell>
        <mxCell id="HJ2EKo2n2KB-KbSQZaAH-14" value="item" style="text;html=1;align=center;verticalAlign=middle;resizable=0;points=[];autosize=1;strokeColor=none;fillColor=none;" parent="1" vertex="1">
          <mxGeometry x="840" y="530" width="50" height="30" as="geometry" />
        </mxCell>
        <mxCell id="HJ2EKo2n2KB-KbSQZaAH-18" value="" style="curved=1;endArrow=classic;html=1;rounded=0;exitX=0;exitY=0.75;exitDx=0;exitDy=0;entryX=0.25;entryY=1;entryDx=0;entryDy=0;" parent="1" edge="1" target="HJ2EKo2n2KB-KbSQZaAH-2">
          <mxGeometry width="50" height="50" relative="1" as="geometry">
            <mxPoint x="680" y="560" as="sourcePoint" />
            <mxPoint x="680" y="515" as="targetPoint" />
            <Array as="points">
              <mxPoint x="630" y="550" />
              <mxPoint x="640" y="430" />
            </Array>
          </mxGeometry>
        </mxCell>
        <mxCell id="HJ2EKo2n2KB-KbSQZaAH-19" value="edit-breed&lt;br&gt;delete-breed" style="text;html=1;align=center;verticalAlign=middle;resizable=0;points=[];autosize=1;strokeColor=none;fillColor=none;" parent="1" vertex="1">
          <mxGeometry x="550" y="480" width="90" height="40" as="geometry" />
        </mxCell>
        <mxCell id="HJ2EKo2n2KB-KbSQZaAH-20" value="CharacteristicsCollection" style="rounded=0;whiteSpace=wrap;html=1;fillColor=#dae8fc;strokeColor=#6c8ebf;" parent="1" vertex="1">
          <mxGeometry x="890" y="720" width="140" height="60" as="geometry" />
        </mxCell>
        <mxCell id="HJ2EKo2n2KB-KbSQZaAH-29" value="FactCollection" style="rounded=0;whiteSpace=wrap;html=1;fillColor=#d5e8d4;strokeColor=#82b366;" parent="1" vertex="1">
          <mxGeometry x="640" y="720" width="120" height="60" as="geometry" />
        </mxCell>
        <mxCell id="HJ2EKo2n2KB-KbSQZaAH-30" value="Fact" style="rounded=0;whiteSpace=wrap;html=1;fillColor=#d5e8d4;strokeColor=#82b366;" parent="1" vertex="1">
          <mxGeometry x="390" y="720" width="120" height="60" as="geometry" />
        </mxCell>
        <mxCell id="HJ2EKo2n2KB-KbSQZaAH-31" value="collection" style="text;html=1;align=center;verticalAlign=middle;resizable=0;points=[];autosize=1;strokeColor=none;fillColor=none;" parent="1" vertex="1">
          <mxGeometry x="540" y="705" width="70" height="30" as="geometry" />
        </mxCell>
        <mxCell id="HJ2EKo2n2KB-KbSQZaAH-32" value="" style="endArrow=classic;html=1;rounded=0;exitX=1;exitY=0.25;exitDx=0;exitDy=0;entryX=0;entryY=0.25;entryDx=0;entryDy=0;" parent="1" source="HJ2EKo2n2KB-KbSQZaAH-30" target="HJ2EKo2n2KB-KbSQZaAH-29" edge="1">
          <mxGeometry width="50" height="50" relative="1" as="geometry">
            <mxPoint x="910" y="910" as="sourcePoint" />
            <mxPoint x="960" y="860" as="targetPoint" />
          </mxGeometry>
        </mxCell>
        <mxCell id="HJ2EKo2n2KB-KbSQZaAH-33" value="" style="endArrow=classic;html=1;rounded=0;exitX=0;exitY=0.75;exitDx=0;exitDy=0;entryX=1;entryY=0.75;entryDx=0;entryDy=0;" parent="1" source="HJ2EKo2n2KB-KbSQZaAH-29" target="HJ2EKo2n2KB-KbSQZaAH-30" edge="1">
          <mxGeometry width="50" height="50" relative="1" as="geometry">
            <mxPoint x="480" y="745" as="sourcePoint" />
            <mxPoint x="610" y="745" as="targetPoint" />
          </mxGeometry>
        </mxCell>
        <mxCell id="HJ2EKo2n2KB-KbSQZaAH-34" value="item" style="text;html=1;align=center;verticalAlign=middle;resizable=0;points=[];autosize=1;strokeColor=none;fillColor=none;" parent="1" vertex="1">
          <mxGeometry x="550" y="735" width="50" height="30" as="geometry" />
        </mxCell>
        <mxCell id="HJ2EKo2n2KB-KbSQZaAH-35" value="delete" style="text;html=1;align=center;verticalAlign=middle;resizable=0;points=[];autosize=1;strokeColor=none;fillColor=none;" parent="1" vertex="1">
          <mxGeometry x="290" y="730" width="60" height="30" as="geometry" />
        </mxCell>
        <mxCell id="HJ2EKo2n2KB-KbSQZaAH-36" value="" style="curved=1;endArrow=classic;html=1;rounded=0;exitX=0;exitY=0.75;exitDx=0;exitDy=0;entryX=0;entryY=0;entryDx=0;entryDy=0;" parent="1" source="HJ2EKo2n2KB-KbSQZaAH-30" target="HJ2EKo2n2KB-KbSQZaAH-30" edge="1">
          <mxGeometry width="50" height="50" relative="1" as="geometry">
            <mxPoint x="410" y="920" as="sourcePoint" />
            <mxPoint x="460" y="870" as="targetPoint" />
            <Array as="points">
              <mxPoint x="340" y="780" />
              <mxPoint x="340" y="710" />
            </Array>
          </mxGeometry>
        </mxCell>
        <mxCell id="HJ2EKo2n2KB-KbSQZaAH-37" value="add-group" style="text;html=1;align=center;verticalAlign=middle;resizable=0;points=[];autosize=1;strokeColor=none;fillColor=none;" parent="1" vertex="1">
          <mxGeometry x="1090" y="265" width="80" height="30" as="geometry" />
        </mxCell>
        <mxCell id="HJ2EKo2n2KB-KbSQZaAH-38" value="" style="curved=1;endArrow=classic;html=1;rounded=0;exitX=0;exitY=0.75;exitDx=0;exitDy=0;entryX=0;entryY=0;entryDx=0;entryDy=0;" parent="1" edge="1">
          <mxGeometry width="50" height="50" relative="1" as="geometry">
            <mxPoint x="1050" y="300" as="sourcePoint" />
            <mxPoint x="1050" y="255" as="targetPoint" />
            <Array as="points">
              <mxPoint x="1100" y="315" />
              <mxPoint x="1100" y="245" />
            </Array>
          </mxGeometry>
        </mxCell>
        <mxCell id="HJ2EKo2n2KB-KbSQZaAH-39" value="add-breed" style="text;html=1;align=center;verticalAlign=middle;resizable=0;points=[];autosize=1;strokeColor=none;fillColor=none;" parent="1" vertex="1">
          <mxGeometry x="1060" y="450" width="80" height="30" as="geometry" />
        </mxCell>
        <mxCell id="HJ2EKo2n2KB-KbSQZaAH-40" value="" style="curved=1;endArrow=classic;html=1;rounded=0;exitX=0;exitY=0.75;exitDx=0;exitDy=0;entryX=0.75;entryY=1;entryDx=0;entryDy=0;" parent="1" edge="1" target="HJ2EKo2n2KB-KbSQZaAH-1">
          <mxGeometry width="50" height="50" relative="1" as="geometry">
            <mxPoint x="1050" y="560" as="sourcePoint" />
            <mxPoint x="1050" y="515" as="targetPoint" />
            <Array as="points">
              <mxPoint x="1100" y="505" />
            </Array>
          </mxGeometry>
        </mxCell>
        <mxCell id="HJ2EKo2n2KB-KbSQZaAH-47" value="" style="curved=1;endArrow=classic;html=1;rounded=0;exitX=0;exitY=0.75;exitDx=0;exitDy=0;entryX=0;entryY=0;entryDx=0;entryDy=0;" parent="1" edge="1">
          <mxGeometry width="50" height="50" relative="1" as="geometry">
            <mxPoint x="680" y="305" as="sourcePoint" />
            <mxPoint x="680" y="260" as="targetPoint" />
            <Array as="points">
              <mxPoint x="630" y="320" />
              <mxPoint x="630" y="250" />
            </Array>
          </mxGeometry>
        </mxCell>
        <mxCell id="HJ2EKo2n2KB-KbSQZaAH-48" value="edit" style="text;html=1;align=center;verticalAlign=middle;resizable=0;points=[];autosize=1;strokeColor=none;fillColor=none;" parent="1" vertex="1">
          <mxGeometry x="590" y="270" width="40" height="30" as="geometry" />
        </mxCell>
        <mxCell id="HJ2EKo2n2KB-KbSQZaAH-49" value="add-characteristic&lt;br&gt;edit&lt;br&gt;delete" style="text;html=1;align=center;verticalAlign=middle;resizable=0;points=[];autosize=1;strokeColor=none;fillColor=none;" parent="1" vertex="1">
          <mxGeometry x="1060" y="700" width="120" height="60" as="geometry" />
        </mxCell>
        <mxCell id="LCExD6skHFwsqvC_7HKq-13" value="&lt;br&gt;" style="text;html=1;align=center;verticalAlign=middle;resizable=0;points=[];autosize=1;strokeColor=none;fillColor=none;" vertex="1" parent="1">
          <mxGeometry x="1000" y="325" width="20" height="30" as="geometry" />
        </mxCell>
        <mxCell id="LCExD6skHFwsqvC_7HKq-16" value="" style="endArrow=classic;html=1;rounded=0;exitX=0.25;exitY=0;exitDx=0;exitDy=0;entryX=0.25;entryY=1;entryDx=0;entryDy=0;" edge="1" parent="1" source="HJ2EKo2n2KB-KbSQZaAH-9" target="HJ2EKo2n2KB-KbSQZaAH-2">
          <mxGeometry width="50" height="50" relative="1" as="geometry">
            <mxPoint x="720" y="480" as="sourcePoint" />
            <mxPoint x="770" y="430" as="targetPoint" />
          </mxGeometry>
        </mxCell>
        <mxCell id="LCExD6skHFwsqvC_7HKq-17" value="" style="endArrow=classic;html=1;rounded=0;exitX=0.25;exitY=0;exitDx=0;exitDy=0;entryX=0.25;entryY=1;entryDx=0;entryDy=0;" edge="1" parent="1">
          <mxGeometry width="50" height="50" relative="1" as="geometry">
            <mxPoint x="989.58" y="510" as="sourcePoint" />
            <mxPoint x="989.58" y="310" as="targetPoint" />
          </mxGeometry>
        </mxCell>
        <mxCell id="LCExD6skHFwsqvC_7HKq-18" value="" style="endArrow=none;html=1;rounded=0;" edge="1" parent="1">
          <mxGeometry width="50" height="50" relative="1" as="geometry">
            <mxPoint x="710" y="440" as="sourcePoint" />
            <mxPoint x="990" y="440" as="targetPoint" />
          </mxGeometry>
        </mxCell>
        <mxCell id="LCExD6skHFwsqvC_7HKq-19" value="groups-all" style="text;html=1;align=center;verticalAlign=middle;resizable=0;points=[];autosize=1;strokeColor=none;fillColor=none;" vertex="1" parent="1">
          <mxGeometry x="920" y="355" width="80" height="30" as="geometry" />
        </mxCell>
        <mxCell id="LCExD6skHFwsqvC_7HKq-20" value="group" style="text;html=1;align=center;verticalAlign=middle;resizable=0;points=[];autosize=1;strokeColor=none;fillColor=none;" vertex="1" parent="1">
          <mxGeometry x="710" y="355" width="50" height="30" as="geometry" />
        </mxCell>
        <mxCell id="LCExD6skHFwsqvC_7HKq-21" value="" style="endArrow=classic;html=1;rounded=0;exitX=0.5;exitY=0;exitDx=0;exitDy=0;entryX=0.25;entryY=1;entryDx=0;entryDy=0;" edge="1" parent="1" source="HJ2EKo2n2KB-KbSQZaAH-30" target="HJ2EKo2n2KB-KbSQZaAH-9">
          <mxGeometry width="50" height="50" relative="1" as="geometry">
            <mxPoint x="650" y="700" as="sourcePoint" />
            <mxPoint x="700" y="650" as="targetPoint" />
            <Array as="points">
              <mxPoint x="700" y="670" />
            </Array>
          </mxGeometry>
        </mxCell>
        <mxCell id="LCExD6skHFwsqvC_7HKq-22" value="breed" style="text;html=1;align=center;verticalAlign=middle;resizable=0;points=[];autosize=1;strokeColor=none;fillColor=none;" vertex="1" parent="1">
          <mxGeometry x="590" y="660" width="50" height="30" as="geometry" />
        </mxCell>
        <mxCell id="LCExD6skHFwsqvC_7HKq-23" value="" style="endArrow=classic;html=1;rounded=0;entryX=0.5;entryY=1;entryDx=0;entryDy=0;exitX=0.75;exitY=0;exitDx=0;exitDy=0;" edge="1" parent="1" source="HJ2EKo2n2KB-KbSQZaAH-29" target="HJ2EKo2n2KB-KbSQZaAH-10">
          <mxGeometry width="50" height="50" relative="1" as="geometry">
            <mxPoint x="710" y="720" as="sourcePoint" />
            <mxPoint x="760" y="670" as="targetPoint" />
            <Array as="points">
              <mxPoint x="920" y="660" />
            </Array>
          </mxGeometry>
        </mxCell>
        <mxCell id="LCExD6skHFwsqvC_7HKq-24" value="breeds-all" style="text;html=1;align=center;verticalAlign=middle;resizable=0;points=[];autosize=1;strokeColor=none;fillColor=none;" vertex="1" parent="1">
          <mxGeometry x="850" y="635" width="80" height="30" as="geometry" />
        </mxCell>
        <mxCell id="LCExD6skHFwsqvC_7HKq-25" value="" style="endArrow=none;html=1;rounded=0;exitX=0.5;exitY=0;exitDx=0;exitDy=0;" edge="1" parent="1" source="HJ2EKo2n2KB-KbSQZaAH-20">
          <mxGeometry width="50" height="50" relative="1" as="geometry">
            <mxPoint x="990" y="710" as="sourcePoint" />
            <mxPoint x="920" y="660" as="targetPoint" />
          </mxGeometry>
        </mxCell>
        <mxCell id="LCExD6skHFwsqvC_7HKq-27" value="" style="endArrow=none;html=1;rounded=0;" edge="1" parent="1">
          <mxGeometry width="50" height="50" relative="1" as="geometry">
            <mxPoint x="700" y="720" as="sourcePoint" />
            <mxPoint x="700" y="670" as="targetPoint" />
          </mxGeometry>
        </mxCell>
        <mxCell id="LCExD6skHFwsqvC_7HKq-29" value="" style="endArrow=none;html=1;rounded=0;exitX=0.25;exitY=0;exitDx=0;exitDy=0;" edge="1" parent="1" source="HJ2EKo2n2KB-KbSQZaAH-20">
          <mxGeometry width="50" height="50" relative="1" as="geometry">
            <mxPoint x="750" y="690" as="sourcePoint" />
            <mxPoint x="700" y="670" as="targetPoint" />
          </mxGeometry>
        </mxCell>
        <mxCell id="LCExD6skHFwsqvC_7HKq-31" value="" style="endArrow=classic;html=1;rounded=0;exitX=1;exitY=0.75;exitDx=0;exitDy=0;entryX=1;entryY=1;entryDx=0;entryDy=0;" edge="1" parent="1" source="HJ2EKo2n2KB-KbSQZaAH-20" target="HJ2EKo2n2KB-KbSQZaAH-1">
          <mxGeometry width="50" height="50" relative="1" as="geometry">
            <mxPoint x="1060" y="740" as="sourcePoint" />
            <mxPoint x="1300" y="310" as="targetPoint" />
            <Array as="points">
              <mxPoint x="1200" y="530" />
            </Array>
          </mxGeometry>
        </mxCell>
        <mxCell id="LCExD6skHFwsqvC_7HKq-32" value="" style="endArrow=classic;html=1;rounded=0;entryX=1.003;entryY=0.342;entryDx=0;entryDy=0;entryPerimeter=0;" edge="1" parent="1" target="HJ2EKo2n2KB-KbSQZaAH-10">
          <mxGeometry width="50" height="50" relative="1" as="geometry">
            <mxPoint x="1200" y="530" as="sourcePoint" />
            <mxPoint x="1130" y="510" as="targetPoint" />
          </mxGeometry>
        </mxCell>
        <mxCell id="LCExD6skHFwsqvC_7HKq-33" value="" style="endArrow=classic;html=1;rounded=0;exitX=0.75;exitY=1;exitDx=0;exitDy=0;entryX=0.75;entryY=0;entryDx=0;entryDy=0;" edge="1" parent="1" source="HJ2EKo2n2KB-KbSQZaAH-30" target="HJ2EKo2n2KB-KbSQZaAH-1">
          <mxGeometry width="50" height="50" relative="1" as="geometry">
            <mxPoint x="530" y="860" as="sourcePoint" />
            <mxPoint x="1010" y="190" as="targetPoint" />
            <Array as="points">
              <mxPoint x="480" y="810" />
              <mxPoint x="1270" y="810" />
              <mxPoint x="1270" y="490" />
              <mxPoint x="1270" y="190" />
              <mxPoint x="1020" y="190" />
            </Array>
          </mxGeometry>
        </mxCell>
        <mxCell id="LCExD6skHFwsqvC_7HKq-35" value="" style="endArrow=classic;html=1;rounded=0;entryX=0.996;entryY=0.647;entryDx=0;entryDy=0;entryPerimeter=0;" edge="1" parent="1" target="HJ2EKo2n2KB-KbSQZaAH-10">
          <mxGeometry width="50" height="50" relative="1" as="geometry">
            <mxPoint x="1270" y="550" as="sourcePoint" />
            <mxPoint x="1270" y="460" as="targetPoint" />
          </mxGeometry>
        </mxCell>
        <mxCell id="LCExD6skHFwsqvC_7HKq-36" value="edit-fact&lt;br&gt;delete-fact" style="text;html=1;align=center;verticalAlign=middle;resizable=0;points=[];autosize=1;strokeColor=none;fillColor=none;" vertex="1" parent="1">
          <mxGeometry x="430" y="810" width="80" height="40" as="geometry" />
        </mxCell>
        <mxCell id="LCExD6skHFwsqvC_7HKq-38" value="" style="endArrow=none;html=1;rounded=0;entryX=0.5;entryY=1;entryDx=0;entryDy=0;" edge="1" parent="1" target="HJ2EKo2n2KB-KbSQZaAH-29">
          <mxGeometry width="50" height="50" relative="1" as="geometry">
            <mxPoint x="700" y="810" as="sourcePoint" />
            <mxPoint x="730" y="810" as="targetPoint" />
            <Array as="points">
              <mxPoint x="700" y="790" />
            </Array>
          </mxGeometry>
        </mxCell>
        <mxCell id="LCExD6skHFwsqvC_7HKq-39" value="add-fact" style="text;html=1;align=center;verticalAlign=middle;resizable=0;points=[];autosize=1;strokeColor=none;fillColor=none;" vertex="1" parent="1">
          <mxGeometry x="700" y="780" width="70" height="30" as="geometry" />
        </mxCell>
      </root>
    </mxGraphModel>
  </diagram>
</mxfile>
